<svg width="32" height="32" viewBox="0 0 32 32" fill="none" xmlns="http://www.w3.org/2000/svg">
  <!-- Background -->
  <rect width="32" height="32" rx="6" fill="url(#grad)"/>
  
  <!-- Letter G -->
  <path d="M16 8C11.58 8 8 11.58 8 16C8 20.42 11.58 24 16 24C18.3 24 20.36 23.05 21.8 21.5L19.3 19C18.5 19.8 17.3 20.3 16 20.3C13.5 20.3 11.5 18.3 11.5 15.8C11.5 13.3 13.5 11.3 16 11.3C17.8 11.3 19.3 12.3 20 13.8H16V17H24V16C24 11.58 20.42 8 16 8Z" fill="white"/>
  
  <!-- Gradient -->
  <defs>
    <linearGradient id="grad" x1="0%" y1="0%" x2="100%" y2="100%">
      <stop offset="0%" style="stop-color:#F59E0B;stop-opacity:1" />
      <stop offset="100%" style="stop-color:#DC2626;stop-opacity:1" />
    </linearGradient>
  </defs>
</svg>